<svg xmlns="http://www.w3.org/2000/svg" width="146" height="44">
    <g fill="white" stroke-width="0">
        <rect x="10" y="13" width="100" height="20" />
        <rect x="122" y="13" width="16" height="20" />
    </g>
    <g stroke="white" fill="black" stroke-width="1">
        <path d="
            M 110 21.5
            l 9 0
            l 0 -3
            l 5 5
            l -5 5
            l 0 -3
            l -9 0
            l 0 -4.5
        " />
        <path d="
            M 112.5 22
            l 0 -13
            l -109 0
            l 0 12.5
            l 3 0
            l 0 -3
            l 5 5
            l -5 5
            l 0 -3
            l -6 0
            l 0 -19.5
            l 115 0
            l 0 16
        " />
    </g>
    <g stroke="black" fill="white" stroke-width="1">
        <rect x="12"  y="15" width="12" height="16" />
        <rect x="24"  y="15" width="12" height="16" />
        <rect x="36"  y="15" width="12" height="16" />
        <rect x="48"  y="15" width="12" height="16" />
        <rect x="60"  y="15" width="12" height="16" />
        <rect x="72"  y="15" width="12" height="16" />
        <rect x="84"  y="15" width="12" height="16" />
        <rect x="96"  y="15" width="12" height="16" />
        <rect x="124" y="15" width="12" height="16" />
    </g>
    <g
        stroke="black" fill="black"
        font-size="14"
        font-family="Consolas"
        alignment-baseline="text-top"
    >
        <text x="14" y="27">7</text>
        <text x="26" y="27">6</text>
        <text x="38" y="27">5</text>
        <text x="50" y="27">4</text>
        <text x="62" y="27">3</text>
        <text x="74" y="27">2</text>
        <text x="86" y="27">1</text>
        <text x="98" y="27">0</text>
        <text x="126" y="27">C</text>
    </g>
</svg>
