<svg xmlns="http://www.w3.org/2000/svg" width="142" height="57">
    <g fill="white" stroke-width="0">
        <rect x="0"  y="13" width="64" height="20" />
        <rect x="78" y="13" width="64" height="20" />

        <rect x="0"  y="37" width="64" height="20" />
        <rect x="78" y="37" width="64" height="20" />
    </g>
    <g stroke="white" fill="black" stroke-width="1">
        <path d="
            M 64 21.5
            l 10 0
            l 0 -3
            l 5 5
            l -5 5
            l 0 -3
            l -10 0
            l 0 -4.5
        " />
        <path d="
            M 64 45.5
            l 10 0
            l 0 -3
            l 5 5
            l -5 5
            l 0 -3
            l -10 0
            l 0 -4.5
        " />
    </g>
    <g stroke="black" fill="white" stroke-width="1">
        <rect x="2"  y="15" width="19.5" height="16" />
        <rect x="22" y="15" width="12"   height="16" />
        <rect x="34" y="15" width="4"    height="16" />
        <rect x="38" y="15" width="4"    height="16" />
        <rect x="42" y="15" width="4"    height="16" />
        <rect x="46" y="15" width="4"    height="16" />
        <rect x="50" y="15" width="4"    height="16" />
        <rect x="54" y="15" width="4"    height="16" />
        <rect x="58" y="15" width="4"    height="16" />

        <rect x="80"  y="15" width="19.5" height="16" />
        <rect x="100" y="15" width="12"   height="16" />
        <rect x="112" y="15" width="4"    height="16" />
        <rect x="116" y="15" width="4"    height="16" />
        <rect x="120" y="15" width="4"    height="16" />
        <rect x="124" y="15" width="4"    height="16" />
        <rect x="128" y="15" width="4"    height="16" />
        <rect x="132" y="15" width="4"    height="16" />
        <rect x="136" y="15" width="4"    height="16" />

        <rect x="2"  y="39" width="19.5" height="16" />
        <rect x="22" y="39" width="12"   height="16" />
        <rect x="34" y="39" width="4"    height="16" />
        <rect x="38" y="39" width="4"    height="16" />
        <rect x="42" y="39" width="4"    height="16" />
        <rect x="46" y="39" width="4"    height="16" />
        <rect x="50" y="39" width="4"    height="16" />
        <rect x="54" y="39" width="4"    height="16" />
        <rect x="58" y="39" width="4"    height="16" />

        <rect x="80"  y="39" width="19.5" height="16" />
        <rect x="100" y="39" width="12"   height="16" />
        <rect x="112" y="39" width="4"    height="16" />
        <rect x="116" y="39" width="4"    height="16" />
        <rect x="120" y="39" width="4"    height="16" />
        <rect x="124" y="39" width="4"    height="16" />
        <rect x="128" y="39" width="4"    height="16" />
        <rect x="132" y="39" width="4"    height="16" />
        <rect x="136" y="39" width="4"    height="16" />
    </g>
    <g 
        font-family="Consolas"
        alignment-baseline="text-top"
    >
        <g stroke="white" fill="black" stroke-width="0.5" font-size="18" font-weight="bold">
            <text x="7"  y="12">B</text>
            <text x="38" y="12">A</text>
            <text x="85" y="12">B</text>
            <text x="116" y="12">A</text>
        </g>
        <g stroke="black" fill="black" font-size="14">
            <text x="4"   y="28">**</text>
            <text x="24"  y="28">0</text>
            <text x="82"  y="28">00</text>
            <text x="102" y="28">0</text>
            <text x="4"   y="52">**</text>
            <text x="24"  y="52">1</text>
            <text x="82"  y="52">FF</text>
            <text x="102" y="52">1</text>
        </g>
    </g>
</svg>
