<svg xmlns="http://www.w3.org/2000/svg" width="110" height="60">
    <!-- replace next line with op-swap.svg -->
    <svg width="110" height="40"><g fill="white" stroke-width="0"><rect x="0" y="10" width="52" height="20"/><rect x="58" y="10" width="52" height="20"/></g><g stroke="white" fill="black" stroke-width="1"><path d="M 66 10a 13 14 180 0 0 -20 -5l -3 -4l 0 9l 9 0l -4 -3a 12 15 180 0 1 15 3l 3.4 0"/><path d="M 44 30a 13 14 180 0 0 20 5l 3 4l 0 -9l -9 0l 4 3a 12 15 180 0 1 -15 -3l -3.4 0"/></g><g stroke="black" fill-opacity="0" stroke-width="1"><rect x="2" y="12" width="12" height="16"/><rect x="14" y="12" width="12" height="16"/><rect x="26" y="12" width="12" height="16"/><rect x="38" y="12" width="12" height="16"/><rect x="60" y="12" width="12" height="16"/><rect x="72" y="12" width="12" height="16"/><rect x="84" y="12" width="12" height="16"/><rect x="96" y="12" width="12" height="16"/></g><g stroke="black" fill="black" font-size="14" font-family="Consolas" alignment-baseline="text-top"><text x="4" y="25">7</text><text x="16" y="25">6</text><text x="28" y="25">5</text><text x="40" y="25">4</text><text x="62" y="25">3</text><text x="74" y="25">2</text><text x="86" y="25">1</text><text x="98" y="25">0</text></g></svg>
    <text
        x="50%" y="55"
        stroke="white" fill="black"
        stroke-width="0.5"
        font-size="18"
        font-family="sans-serif"
        font-weight="bold"
        text-anchor="middle"
        alignment-baseline="text-top"
    >A</text>
</svg>
