<svg xmlns="http://www.w3.org/2000/svg" width="902" height="902">
	<g text-anchor="middle" dominant-baseline="central" font-size="100px">
		<text x="50" y="50">0</text>
		<text x="50" y="150">1</text>
		<text x="50" y="250">2</text>
		<text x="50" y="350">3</text>
		<text x="50" y="450">4</text>
		<text x="50" y="550">5</text>
		<text x="50" y="650">6</text>
		<text x="50" y="750">7</text>

		<text x="150" y="850">A</text>
		<text x="250" y="850">B</text>
		<text x="350" y="850">C</text>
		<text x="450" y="850">D</text>
		<text x="550" y="850">E</text>
		<text x="650" y="850">F</text>
		<text x="750" y="850">G</text>
		<text x="850" y="850">H</text>
	</g>
	<g transform="translate(100, 0)" stroke-width="2.25" stroke="gray" fill="none">
		<rect width="100" height="100" x="0" y="0"></rect>
		<rect width="100" height="100" x="100" y="0"></rect>
		<rect width="100" height="100" x="200" y="0"></rect>
		<rect width="100" height="100" x="300" y="0" fill="black"></rect>
		<rect width="100" height="100" x="400" y="0" fill="black"></rect>
		<rect width="100" height="100" x="500" y="0"></rect>
		<rect width="100" height="100" x="600" y="0"></rect>
		<rect width="100" height="100" x="700" y="0"></rect>
		<rect width="100" height="100" x="0" y="100"></rect>
		<rect width="100" height="100" x="100" y="100"></rect>
		<rect width="100" height="100" x="200" y="100" fill="black"></rect>
		<rect width="100" height="100" x="300" y="100" fill="black"></rect>
		<rect width="100" height="100" x="400" y="100" fill="black"></rect>
		<rect width="100" height="100" x="500" y="100" fill="black"></rect>
		<rect width="100" height="100" x="600" y="100"></rect>
		<rect width="100" height="100" x="700" y="100"></rect>
		<rect width="100" height="100" x="0" y="200"></rect>
		<rect width="100" height="100" x="100" y="200" fill="black"></rect>
		<rect width="100" height="100" x="200" y="200"></rect>
		<rect width="100" height="100" x="300" y="200" fill="black"></rect>
		<rect width="100" height="100" x="400" y="200" fill="black"></rect>
		<rect width="100" height="100" x="500" y="200"></rect>
		<rect width="100" height="100" x="600" y="200" fill="black"></rect>
		<rect width="100" height="100" x="700" y="200"></rect>
		<rect width="100" height="100" x="0" y="300" fill="black"></rect>
		<rect width="100" height="100" x="100" y="300" fill="black"></rect>
		<rect width="100" height="100" x="200" y="300" fill="black"></rect>
		<rect width="100" height="100" x="300" y="300" fill="black"></rect>
		<rect width="100" height="100" x="400" y="300" fill="black"></rect>
		<rect width="100" height="100" x="500" y="300" fill="black"></rect>
		<rect width="100" height="100" x="600" y="300" fill="black"></rect>
		<rect width="100" height="100" x="700" y="300" fill="black"></rect>
		<rect width="100" height="100" x="0" y="400" fill="black"></rect>
		<rect width="100" height="100" x="100" y="400"></rect>
		<rect width="100" height="100" x="200" y="400" fill="black"></rect>
		<rect width="100" height="100" x="300" y="400" fill="black"></rect>
		<rect width="100" height="100" x="400" y="400" fill="black"></rect>
		<rect width="100" height="100" x="500" y="400" fill="black"></rect>
		<rect width="100" height="100" x="600" y="400"></rect>
		<rect width="100" height="100" x="700" y="400" fill="black"></rect>
		<rect width="100" height="100" x="0" y="500"></rect>
		<rect width="100" height="100" x="100" y="500" fill="black"></rect>
		<rect width="100" height="100" x="200" y="500"></rect>
		<rect width="100" height="100" x="300" y="500"></rect>
		<rect width="100" height="100" x="400" y="500"></rect>
		<rect width="100" height="100" x="500" y="500"></rect>
		<rect width="100" height="100" x="600" y="500" fill="black"></rect>
		<rect width="100" height="100" x="700" y="500"></rect>
		<rect width="100" height="100" x="0" y="600"></rect>
		<rect width="100" height="100" x="100" y="600"></rect>
		<rect width="100" height="100" x="200" y="600" fill="black"></rect>
		<rect width="100" height="100" x="300" y="600" fill="black"></rect>
		<rect width="100" height="100" x="400" y="600" fill="black"></rect>
		<rect width="100" height="100" x="500" y="600" fill="black"></rect>
		<rect width="100" height="100" x="600" y="600"></rect>
		<rect width="100" height="100" x="700" y="600"></rect>
		<rect width="100" height="100" x="0" y="700"></rect>
		<rect width="100" height="100" x="100" y="700"></rect>
		<rect width="100" height="100" x="200" y="700"></rect>
		<rect width="100" height="100" x="300" y="700" fill="black"></rect>
		<rect width="100" height="100" x="400" y="700" fill="black"></rect>
		<rect width="100" height="100" x="500" y="700"></rect>
		<rect width="100" height="100" x="600" y="700"></rect>
		<rect width="100" height="100" x="700" y="700"></rect>
	</g>
</svg>
