<svg xmlns="http://www.w3.org/2000/svg" width="95" height="45">
    <g fill="white" stroke-width="0">
        <rect x="0"    y="13" width="52.5" height="20" />
        <rect x="66.5" y="13" width="28"   height="20" />
    </g>
    <path stroke="white" fill="black" stroke-width="1" d="
        M 52.5 21.5
        l 10 0
        l 0 -3
        l 5 5
        l -5 5
        l 0 -3
        l -10 0
        l 0 -4.5
    " />
    <g stroke="black" fill="white" stroke-width="1">
        <rect x="2"  y="15" width="12" height="16" />
        <rect x="14" y="15" width="12" height="16" />
        <rect x="26.5" y="15" width="12" height="16" />
        <rect x="38.5" y="15" width="12" height="16" />
        <rect x="68.5" y="15" width="12" height="16" />
        <rect x="80.5" y="15" width="12" height="16" />
    </g>
    <g 
        font-family="Consolas"
        alignment-baseline="text-top"
    >
        <g stroke="white" fill="black" stroke-width="0.5" font-size="18" font-weight="bold">
            <text x="9"    y="12">B</text>
            <text x="33.5" y="12">A</text>
            <text x="75.5" y="12">A</text>
        </g>
        <g stroke="black" fill="black" font-size="14">
            <text x="4"    y="28">*</text>
            <text x="16"   y="28">m</text>
            <text x="28.5" y="28">*</text>
            <text x="40.5" y="28">n</text>
            <text x="70.5" y="28">m</text>
            <text x="82.5" y="28">n</text>
        </g>
    </g>
</svg>
