<svg xmlns="http://www.w3.org/2000/svg" width="146" height="55">
    <!-- replace next line with op-rr.svg -->
    <svg width="145" height="44"><g fill="white" stroke-width="0"><rect x="10" y="13" width="100" height="20"/><rect x="122" y="13" width="17" height="20"/></g><g stroke="white" fill="black" stroke-width="1"><path d="M 110 21.5l 9 0l 0 -3l 5 5l -5 5l 0 -3l -9 0l 0 -4.5"/><path d="M 138 21.5l 3 0l 0 -13l -137 0l 0 13l 3 0l 0 -3l 5 5l -5 5l 0 -3l -6 0l 0 -20l 143 0l 0 20l -6 0l 0 -4.5"/></g><g stroke="black" fill="white" stroke-width="1"><rect x="12" y="15" width="12" height="16"/><rect x="24" y="15" width="12" height="16"/><rect x="36" y="15" width="12" height="16"/><rect x="48" y="15" width="12" height="16"/><rect x="60" y="15" width="12" height="16"/><rect x="72" y="15" width="12" height="16"/><rect x="84" y="15" width="12" height="16"/><rect x="96" y="15" width="12" height="16"/><rect x="124" y="15" width="12" height="16"/></g><g stroke="black" fill="black" font-size="14" font-family="Consolas" alignment-baseline="text-top"><text x="14" y="28">7</text><text x="26" y="28">6</text><text x="38" y="28">5</text><text x="50" y="28">4</text><text x="62" y="28">3</text><text x="74" y="28">2</text><text x="86" y="28">1</text><text x="98" y="28">0</text><text x="126" y="28">C</text></g></svg>
    <text
        x="60" y="50"
        stroke="white" fill="black"
        stroke-width="0.5"
        font-size="18"
        font-family="sans-serif"
        font-weight="bold"
        text-anchor="middle"
        alignment-baseline="text-top"
    >A</text>
</svg>
