<svg xmlns="http://www.w3.org/2000/svg" width="126" height="44">
    <g fill="white" stroke-width="0">
        <rect x="10" y="13" width="84" height="18" />
        <rect x="106" y="13" width="14" height="18" />
    </g>
    <g stroke="white" fill="black" stroke-width="1">
        <path d="
            M 93 21
            l 11 0
            l -2 -3
            l 2 -1
            l 3 5
            l -3 5
            l -2 -1
            l 2 -3
            l -11 0
            l 0 -2.5
        " />
        <path d="
            M 98 21
            l 0 -13
            l -94 0
            l 0 13
            l 4 0
            l -2 -3
            l 2 -1
            l 3 5
            l -3 5
            l -2 -1
            l 2 -3
            l -6 0
            l -0 -17
            l 98 0
            l 0 15
            l -2.5 0
        " />
    </g>
    <g stroke="black" fill="white" stroke-width="1">
        <rect x="12" y="15" width="10" height="14" />
        <rect x="22" y="15" width="10" height="14" />
        <rect x="32" y="15" width="10" height="14" />
        <rect x="42" y="15" width="10" height="14" />
        <rect x="52" y="15" width="10" height="14" />
        <rect x="62" y="15" width="10" height="14" />
        <rect x="72" y="15" width="10" height="14" />
        <rect x="82" y="15" width="10" height="14" />
        <rect x="108" y="15" width="10" height="14" />
    </g>
    <g stroke="black" fill="black" font-size="14" alignment-baseline="text-top">
        <text x="13" y="27">7</text>
        <text x="23" y="27">6</text>
        <text x="33" y="27">5</text>
        <text x="43" y="27">4</text>
        <text x="53" y="27">3</text>
        <text x="63" y="27">2</text>
        <text x="73" y="27">1</text>
        <text x="83" y="27">0</text>
        <text x="109" y="27">C</text>
    </g>
</svg>
