<svg xmlns="http://www.w3.org/2000/svg" width="126" height="55">
    <!-- replace next line with op-rl.svg -->
    <svg width="126" height="44"><g fill="white" stroke-width="0"><rect x="6" y="13" width="14" height="18"/><rect x="32" y="13" width="84" height="18"/></g><g stroke="white" fill="black" stroke-width="1"><path d="M 33 21l -11 0l 2 -3l -2 -1l -3 5l 3 5l 2 -1l -2 -3l 11 0l 0 -2.5"/><path d="M 6 21l -3 0l 0 -13l 120 0l 0 13l -4 0l 2 -3l -2 -1l -3 5l 3 5l 2 -1l -2 -3l 6 0l 0 -17l -124 0l 0 17l 5 0l 0 -2.5"/></g><g stroke="black" fill="white" stroke-width="1"><rect x="8" y="15" width="10" height="14"/><rect x="34" y="15" width="10" height="14"/><rect x="44" y="15" width="10" height="14"/><rect x="54" y="15" width="10" height="14"/><rect x="64" y="15" width="10" height="14"/><rect x="74" y="15" width="10" height="14"/><rect x="84" y="15" width="10" height="14"/><rect x="94" y="15" width="10" height="14"/><rect x="104" y="15" width="10" height="14"/></g><g stroke="black" fill="black" font-size="14" font-family="Consolas" alignment-baseline="text-top"><text x="9" y="27">C</text><text x="35" y="27">7</text><text x="45" y="27">6</text><text x="55" y="27">5</text><text x="65" y="27">4</text><text x="75" y="27">3</text><text x="85" y="27">2</text><text x="95" y="27">1</text><text x="105" y="27">0</text></g></svg>
    <text
        x="50%" y="50"
        stroke="white" fill="black"
        stroke-width="0.3"
        font-size="18"
        font-family="sans-serif"
        text-anchor="middle"
        alignment-baseline="text-top"
    >B</text>
</svg>
