<svg xmlns="http://www.w3.org/2000/svg" width="140" height="44">
    <g fill="white" stroke-width="0">
        <rect x="6" y="13" width="14" height="18" />
        <rect x="32" y="13" width="84" height="18" />
    </g>
    <g stroke="white" fill="black" stroke-width="1">
        <path d="
            M 33 21
            l -11 0
            l 2 -3
            l -2 -1
            l -3 5
            l 3 5
            l 2 -1
            l -2 -3
            l 11 0
            l 0 -2.5
        " />
        <path d="
            M 129 21
            l -11 0
            l 2 -3
            l -2 -1
            l -3 5
            l 3 5
            l 2 -1
            l -2 -3
            l 11 0
            l 0 -2.5
        " />
    </g>
    <g stroke="black" fill="white" stroke-width="1">
        <rect x="8" y="15" width="10" height="14" />
        <rect x="34" y="15" width="10" height="14" />
        <rect x="44" y="15" width="10" height="14" />
        <rect x="54" y="15" width="10" height="14" />
        <rect x="64" y="15" width="10" height="14" />
        <rect x="74" y="15" width="10" height="14" />
        <rect x="84" y="15" width="10" height="14" />
        <rect x="94" y="15" width="10" height="14" />
        <rect x="104" y="15" width="10" height="14" />
    </g>
    <g 
        font-family="Consolas"
        alignment-baseline="text-top"
    >
        <g stroke="black" fill="black" font-size="14">
            <text x="9" y="27">C</text>
            <text x="35" y="27">7</text>
            <text x="45" y="27">6</text>
            <text x="55" y="27">5</text>
            <text x="65" y="27">4</text>
            <text x="75" y="27">3</text>
            <text x="85" y="27">2</text>
            <text x="95" y="27">1</text>
            <text x="105" y="27">0</text>
        </g>
        <text
            x="129" y="28"
            stroke="white" fill="black"
            stroke-width="0.5"
            font-size="18"
        >0</text>
    </g>
</svg>
