<svg xmlns="http://www.w3.org/2000/svg" width="158" height="55">
    <!-- replace next line with op-srl.svg -->
    <svg width="158" height="44"><g fill="white" stroke-width="0"><rect x="26" y="13" width="100" height="20"/><rect x="139" y="13" width="16" height="20"/></g><g stroke="white" fill="black" stroke-width="1"><path d="M 13 21.5l 9 0l 0 -3l 5 5l -5 5l 0 -3l -9 0l 0 -4.5"/><path d="M 126 21.5l 9 0l 0 -3l 5 5l -5 5l 0 -3l -9 0l 0 -4.5"/></g><g stroke="black" fill="white" stroke-width="1"><rect x="28" y="15" width="12" height="16"/><rect x="40" y="15" width="12" height="16"/><rect x="52" y="15" width="12" height="16"/><rect x="64" y="15" width="12" height="16"/><rect x="76" y="15" width="12" height="16"/><rect x="88" y="15" width="12" height="16"/><rect x="100" y="15" width="12" height="16"/><rect x="112" y="15" width="12" height="16"/><rect x="141" y="15" width="12" height="16"/></g><g font-family="Consolas" alignment-baseline="text-top"><g stroke="black" fill="black" font-size="14"><text x="30" y="28">7</text><text x="42" y="28">6</text><text x="54" y="28">5</text><text x="66" y="28">4</text><text x="78" y="28">3</text><text x="90" y="28">2</text><text x="102" y="28">1</text><text x="114" y="28">0</text><text x="143" y="28">C</text></g><text x="1" y="29" stroke="white" fill="black" stroke-width="0.5" font-size="18" font-weight="bold">0</text></g></svg>
    <text
        x="76" y="50"
        stroke="white" fill="black"
        stroke-width="0.5"
        font-size="18"
        font-family="sans-serif"
        font-weight="bold"
        text-anchor="middle"
        alignment-baseline="text-top"
    >B</text>
</svg>
