<svg xmlns="http://www.w3.org/2000/svg" width="113" height="65">
    <!-- replace next line with op-swap.svg -->
    <svg width="113" height="45"><g fill="white" stroke-width="0"><rect x="11" y="18" width="44" height="18"/><rect x="58" y="18" width="44" height="18"/></g><g stroke="black" fill-opacity="0" stroke-width="1"><rect x="13" y="20" width="10" height="14"/><rect x="23" y="20" width="10" height="14"/><rect x="33" y="20" width="10" height="14"/><rect x="43" y="20" width="10" height="14"/><rect x="60" y="20" width="10" height="14"/><rect x="70" y="20" width="10" height="14"/><rect x="80" y="20" width="10" height="14"/><rect x="90" y="20" width="10" height="14"/></g><g stroke="black" fill="black" font-size="14" font-family="Consolas" alignment-baseline="text-top"><text x="14" y="32">7</text><text x="24" y="32">6</text><text x="34" y="32">5</text><text x="44" y="32">4</text><text x="61" y="32">3</text><text x="71" y="32">2</text><text x="81" y="32">1</text><text x="91" y="32">0</text></g><g stroke="white" fill="black" stroke-width="1"><path d="M 66 18A 10 10 180 0 0 48 14l 0 -4l -2 0l 0 8l 7 0l 0 -2l -4 0a 9 9 180 0 1 16 2l 1 0"/><path d="M 47 36A 10 10 180 0 0 65 40l 0 4l 2 0l 0 -8l -7 0l 0 2l 4 0a 9 9 180 0 1 -16 -2l -1 0"/></g></svg>
    <text
        x="50%" y="60"
        stroke="white" fill="black"
        stroke-width="0.3"
        font-size="18"
        font-family="sans-serif"
        text-anchor="middle"
        alignment-baseline="text-top"
    >A</text>
</svg>
