<svg xmlns="http://www.w3.org/2000/svg" width="106" height="78">
    <g fill="white" stroke-width="0">
        <rect x="0" y="13" width="46" height="18" />
        <rect x="60" y="13" width="46" height="18" />

        <rect x="0" y="33" width="46" height="18" />
        <rect x="60" y="33" width="46" height="18" />
    </g>
    <g stroke="white" fill="black" stroke-width="1">
        <path d="
            M 46 21
            L 58 21
            l -2 -3
            l 2 -1
            L 61 22
            l -3 5
            l -2 -1
            L 58 23
            L 46 23
            l 0 -2
        " />
        <path d="
            M 46 41
            L 58 41
            l -2 -3
            l 2 -1
            L 61 42
            l -3 5
            l -2 -1
            L 58 43
            L 46 43
            l 0 -2
        " />
    </g>
    <g stroke="black" fill="white" stroke-width="1">
        <rect x="2"  y="15" width="18" height="14" />
        <rect x="20" y="15" width="10" height="14" />
        <rect x="30" y="15" width="2" height="14" />
        <rect x="32" y="15" width="2" height="14" />
        <rect x="34" y="15" width="2" height="14" />
        <rect x="36" y="15" width="2" height="14" />
        <rect x="38" y="15" width="2" height="14" />
        <rect x="40" y="15" width="2" height="14" />
        <rect x="42" y="15" width="2" height="14" />

        <rect x="62"  y="15" width="18" height="14" />
        <rect x="80"  y="15" width="10" height="14" />
        <rect x="90"  y="15" width="2" height="14" />
        <rect x="92"  y="15" width="2" height="14" />
        <rect x="94"  y="15" width="2" height="14" />
        <rect x="96"  y="15" width="2" height="14" />
        <rect x="98"  y="15" width="2" height="14" />
        <rect x="100" y="15" width="2" height="14" />
        <rect x="102" y="15" width="2" height="14" />

        <rect x="2"  y="35" width="18" height="14" />
        <rect x="20" y="35" width="10" height="14" />
        <rect x="30" y="35" width="2" height="14" />
        <rect x="32" y="35" width="2" height="14" />
        <rect x="34" y="35" width="2" height="14" />
        <rect x="36" y="35" width="2" height="14" />
        <rect x="38" y="35" width="2" height="14" />
        <rect x="40" y="35" width="2" height="14" />
        <rect x="42" y="35" width="2" height="14" />

        <rect x="62"  y="35" width="18" height="14" />
        <rect x="80"  y="35" width="10" height="14" />
        <rect x="90"  y="35" width="2" height="14" />
        <rect x="92"  y="35" width="2" height="14" />
        <rect x="94"  y="35" width="2" height="14" />
        <rect x="96"  y="35" width="2" height="14" />
        <rect x="98"  y="35" width="2" height="14" />
        <rect x="100" y="35" width="2" height="14" />
        <rect x="102" y="35" width="2" height="14" />
    </g>
    <g 
        font-family="Consolas"
        alignment-baseline="text-top"
    >
        <g stroke="white" fill="black" stroke-width="0.5" font-size="18">
            <text x="6" y="12">B</text>
            <text x="27" y="12">A</text>
            <text x="66" y="12">B</text>
            <text x="87" y="12">A</text>
        </g>
        <g stroke="black" fill="black" font-size="14">
            <text x="3"  y="27">**</text>
            <text x="21" y="27">0</text>
            <text x="63" y="27">00</text>
            <text x="81" y="27">0</text>
            <text x="3"  y="47">**</text>
            <text x="21" y="47">1</text>
            <text x="63" y="47">FF</text>
            <text x="81" y="47">1</text>
        </g>
    </g>
</svg>
