<svg xmlns="http://www.w3.org/2000/svg" width="113" height="45">
    <g stroke="black" fill-opacity="0" stroke-width="1">
        <rect x="10" y="20" width="10" height="14" />
        <rect x="21" y="20" width="10" height="14" />
        <rect x="32" y="20" width="10" height="14" />
        <rect x="43" y="20" width="10" height="14" />
        <rect x="60" y="20" width="10" height="14" />
        <rect x="71" y="20" width="10" height="14" />
        <rect x="82" y="20" width="10" height="14" />
        <rect x="93" y="20" width="10" height="14" />
    </g>
    <g stroke="black" fill="black" font-size="14" alignment-baseline="text-top">
        <text x="11" y="32">7</text>
        <text x="22" y="32">6</text>
        <text x="33" y="32">5</text>
        <text x="44" y="32">4</text>
        <text x="61" y="32">3</text>
        <text x="72" y="32">2</text>
        <text x="83" y="32">1</text>
        <text x="94" y="32">0</text>
    </g>
    <g stroke="black" fill-opacity="0" stroke-width="1">
        <path d="
            M 65 18
            A 10 10 180 0 0 48 18
            m 0 -5
            l 0 5
            l 5 0
        " />
        <path d="
            M 48 36
            A 10 10 180 0 0 65 36
            m 0 5
            l 0 -5
            l -5 0
        " />
    </g>
</svg>
